<?xml version="1.0" encoding="UTF-8"?><svg xmlns="http://www.w3.org/2000/svg" xmlns:xlink="http://www.w3.org/1999/xlink" fill-opacity="1" color-rendering="auto" color-interpolation="auto" text-rendering="auto" stroke="black" stroke-linecap="square" width="1778" stroke-miterlimit="10" shape-rendering="auto" stroke-opacity="1" fill="black" stroke-dasharray="none" font-weight="normal" stroke-width="1" height="1080" font-family="'Dialog'" font-style="normal" stroke-linejoin="miter" font-size="12px" stroke-dashoffset="0" image-rendering="auto">
  <!--Generated by ySVG 2.5-->
  <defs id="genericDefs"/>
  <g>
    <g stroke-linecap="butt" transform="matrix(1,0,0,1,130,359)" text-rendering="geometricPrecision" shape-rendering="geometricPrecision" stroke-dasharray="30,10" stroke-width="5" stroke-miterlimit="1.45">
      <path fill="none" d="M125.7184 -319.3843 L1267.2421 -319.3843 L1267.2421 720.738 L125.7184 720.738 Z" clip-path="url(#clipPath2)"/>
    </g>
    <g font-size="30px" stroke-linecap="butt" transform="matrix(1,0,0,1,130,359)" text-rendering="geometricPrecision" font-family="sans-serif" shape-rendering="geometricPrecision" stroke-miterlimit="1.45">
      <text x="-127.7962" xml:space="preserve" y="-328.4595" clip-path="url(#clipPath2)" stroke="none">Internal network</text>
    </g>
    <g fill="url(#linearGradient1)" text-rendering="geometricPrecision" shape-rendering="geometricPrecision" transform="matrix(1,0,0,1,130,359)" stroke="url(#linearGradient1)">
      <path d="M165.0315 -65.1098 L1152.5315 -65.1098 L1152.5315 698.6403 L165.0315 698.6403 Z" stroke="none" clip-path="url(#clipPath2)"/>
    </g>
    <g stroke-linecap="round" transform="matrix(1,0,0,1,130,359)" text-rendering="geometricPrecision" shape-rendering="geometricPrecision" stroke-dasharray="8,6,0,6" stroke-width="2" stroke-miterlimit="1.45">
      <path fill="none" d="M165.0315 -65.1098 L1152.5315 -65.1098 L1152.5315 698.6403 L165.0315 698.6403 Z" clip-path="url(#clipPath2)"/>
    </g>
    <g font-size="30px" stroke-linecap="butt" transform="matrix(1,0,0,1,130,359)" text-rendering="geometricPrecision" font-family="sans-serif" shape-rendering="geometricPrecision" stroke-miterlimit="1.45">
      <text x="542.1653" xml:space="preserve" y="685.5651" clip-path="url(#clipPath2)" stroke="none">HOST MACHINE</text>
    </g>
    <g fill="url(#linearGradient2)" text-rendering="geometricPrecision" shape-rendering="geometricPrecision" transform="matrix(1,0,0,1,130,359)" stroke="url(#linearGradient2)">
      <path d="M1471.25 339.3392 C1446 293.3492 1471.25 252.2867 1512.66 281.8517 C1512.66 252.2867 1581.34 252.2867 1581.34 281.8517 C1622.75 252.2867 1648 293.3492 1622.75 329.4843 C1648 375.4742 1622.75 416.5367 1591.4399 386.9717 C1581.34 416.5367 1512.66 416.5367 1522.76 386.9717 C1471.25 416.5367 1446 375.4742 1471.25 339.3392 Z" stroke="none" clip-path="url(#clipPath2)"/>
    </g>
    <g text-rendering="geometricPrecision" stroke-miterlimit="1.45" shape-rendering="geometricPrecision" transform="matrix(1,0,0,1,130,359)" stroke-linecap="butt">
      <path fill="none" d="M1471.25 339.3392 C1446 293.3492 1471.25 252.2867 1512.66 281.8517 C1512.66 252.2867 1581.34 252.2867 1581.34 281.8517 C1622.75 252.2867 1648 293.3492 1622.75 329.4843 C1648 375.4742 1622.75 416.5367 1591.4399 386.9717 C1581.34 416.5367 1512.66 416.5367 1522.76 386.9717 C1471.25 416.5367 1446 375.4742 1471.25 339.3392 Z" clip-path="url(#clipPath2)"/>
      <text x="1471.1455" font-size="20px" y="341.3356" clip-path="url(#clipPath2)" font-family="sans-serif" stroke="none" xml:space="preserve">Shrine network</text>
    </g>
    <g fill="url(#linearGradient3)" text-rendering="geometricPrecision" shape-rendering="geometricPrecision" transform="matrix(1,0,0,1,130,359)" stroke="url(#linearGradient3)">
      <path d="M207.75 558.55 C212.34 536.5 356.16 536.5 360.75 558.55 L360.75 624.7 C356.16 646.75 212.34 646.75 207.75 624.7 Z" stroke="none" clip-path="url(#clipPath2)"/>
    </g>
    <g text-rendering="geometricPrecision" stroke-miterlimit="1.45" shape-rendering="geometricPrecision" transform="matrix(1,0,0,1,130,359)" stroke-linecap="butt">
      <path fill="none" d="M207.75 558.55 C212.34 536.5 356.16 536.5 360.75 558.55 L360.75 624.7 C356.16 646.75 212.34 646.75 207.75 624.7 Z" clip-path="url(#clipPath2)"/>
      <path fill="none" d="M360.75 558.55 C356.16 580.6 212.34 580.6 207.75 558.55" clip-path="url(#clipPath2)"/>
      <text x="249.7041" font-size="20px" y="598.5488" clip-path="url(#clipPath2)" font-family="sans-serif" stroke="none" xml:space="preserve">i2b2db</text>
    </g>
    <g fill="url(#linearGradient4)" text-rendering="geometricPrecision" shape-rendering="geometricPrecision" transform="matrix(1,0,0,1,130,359)" stroke="url(#linearGradient4)">
      <path d="M524.5 562.95 C528.82 542 664.18 542 668.5 562.95 L668.5 625.8 C664.18 646.75 528.82 646.75 524.5 625.8 Z" stroke="none" clip-path="url(#clipPath2)"/>
    </g>
    <g text-rendering="geometricPrecision" stroke-miterlimit="1.45" shape-rendering="geometricPrecision" transform="matrix(1,0,0,1,130,359)" stroke-linecap="butt">
      <path fill="none" d="M524.5 562.95 C528.82 542 664.18 542 668.5 562.95 L668.5 625.8 C664.18 646.75 528.82 646.75 524.5 625.8 Z" clip-path="url(#clipPath2)"/>
      <path fill="none" d="M668.5 562.95 C664.18 583.9 528.82 583.9 524.5 562.95" clip-path="url(#clipPath2)"/>
      <text x="552.877" font-size="20px" y="601.2988" clip-path="url(#clipPath2)" font-family="sans-serif" stroke="none" xml:space="preserve">shrinedb</text>
    </g>
    <g fill="url(#linearGradient5)" text-rendering="geometricPrecision" shape-rendering="geometricPrecision" transform="matrix(1,0,0,1,130,359)" stroke="url(#linearGradient5)">
      <path d="M211.75 305 L356.75 305 L356.75 391.25 L211.75 391.25 Z" stroke="none" clip-path="url(#clipPath2)"/>
    </g>
    <g text-rendering="geometricPrecision" stroke-miterlimit="1.45" shape-rendering="geometricPrecision" transform="matrix(1,0,0,1,130,359)" stroke-linecap="butt">
      <path fill="none" d="M211.75 305 L356.75 305 L356.75 391.25 L211.75 391.25 Z" clip-path="url(#clipPath2)"/>
      <text x="243.5762" font-size="20px" y="355.0488" clip-path="url(#clipPath2)" font-family="sans-serif" stroke="none" xml:space="preserve">i2b2app</text>
    </g>
    <g fill="url(#linearGradient6)" text-rendering="geometricPrecision" shape-rendering="geometricPrecision" transform="matrix(1,0,0,1,130,359)" stroke="url(#linearGradient6)">
      <path d="M531 305 L676 305 L676 391.25 L531 391.25 Z" stroke="none" clip-path="url(#clipPath2)"/>
    </g>
    <g text-rendering="geometricPrecision" stroke-miterlimit="1.45" shape-rendering="geometricPrecision" transform="matrix(1,0,0,1,130,359)" stroke-linecap="butt">
      <path fill="none" d="M531 305 L676 305 L676 391.25 L531 391.25 Z" clip-path="url(#clipPath2)"/>
      <text x="553.749" font-size="20px" y="355.0488" clip-path="url(#clipPath2)" font-family="sans-serif" stroke="none" xml:space="preserve">shrineapp</text>
    </g>
    <g fill="url(#linearGradient7)" text-rendering="geometricPrecision" shape-rendering="geometricPrecision" transform="matrix(1,0,0,1,130,359)" stroke="url(#linearGradient7)">
      <path d="M211.75 59.8902 L356.75 59.8902 L356.75 146.1402 L211.75 146.1402 Z" stroke="none" clip-path="url(#clipPath2)"/>
    </g>
    <g text-rendering="geometricPrecision" stroke-miterlimit="1.45" shape-rendering="geometricPrecision" transform="matrix(1,0,0,1,130,359)" stroke-linecap="butt">
      <path fill="none" d="M211.75 59.8902 L356.75 59.8902 L356.75 146.1402 L211.75 146.1402 Z" clip-path="url(#clipPath2)"/>
      <text x="231.916" font-size="20px" y="109.9391" clip-path="url(#clipPath2)" font-family="sans-serif" stroke="none" xml:space="preserve">webserver</text>
    </g>
    <g text-rendering="geometricPrecision" shape-rendering="geometricPrecision" transform="matrix(1.5796,0,0,2.2222,921.5276,140.2327)">
      <g clip-path="url(#clipPath3)">
        <svg xml:space="preserve" opacity="1" writing-mode="lr-tb" stop-color="rgb(0, 0, 0)" shape-rendering="auto" glyph-orientation-horizontal="0deg" color-profile="auto" lighting-color="rgb(255, 255, 255)" color="rgb(0, 0, 0)" font-weight="400" alignment-baseline="auto" font-style="normal" version="1.1" color-interpolation-filters="linearrgb" text-anchor="start" stroke-linecap="butt" color-interpolation="srgb" font-variant="normal" word-spacing="normal" fill-opacity="1" text-rendering="auto" clip-path="none" text-decoration="none" letter-spacing="normal" viewBox="-1 -0.044 71 43" glyph-orientation-vertical="auto" display="inline" font-size-adjust="none" overflow="visible" fill="rgb(0, 0, 0)" font-stretch="normal" stroke-dasharray="none" stroke-miterlimit="4" stop-opacity="1" color-rendering="auto" font-size="12" pointer-events="visiblepainted" mask="none" direction="ltr" baseline-shift="baseline" enable-background="new -1 -0.044 71 43" fill-rule="nonzero" image-rendering="auto" stroke-dashoffset="0" width="71px" marker-end="none" clip="auto" cursor="auto" stroke="none" filter="none" visibility="visible" kerning="auto" stroke-width="1" font-family="&quot;Arial&quot;,&quot;Helvetica&quot;,sans-serif" flood-opacity="1" clip-rule="nonzero" src="none" height="43px" unicode-bidi="normal" stroke-linejoin="miter" stroke-opacity="1" flood-color="rgb(0, 0, 0)" dominant-baseline="auto" marker-start="none" x="0px" marker-mid="none" y="0px">
<defs>
<linearGradient x1="165.0315" gradientUnits="userSpaceOnUse" x2="1152.5315" y1="-65.1098" y2="698.6403" id="linearGradient1" spreadMethod="reflect"><stop stop-opacity="1" stop-color="rgb(247,250,253)" offset="0%"/><stop stop-opacity="1" stop-color="rgb(247,250,253)" offset="100%"/></linearGradient><linearGradient x1="1446" gradientUnits="userSpaceOnUse" x2="1648" y1="252.2867" y2="416.5367" id="linearGradient2" spreadMethod="reflect"><stop stop-opacity="1" stop-color="rgb(232,238,247)" offset="0%"/><stop stop-opacity="1" stop-color="rgb(183,201,227)" offset="100%"/></linearGradient><linearGradient x1="207.75" gradientUnits="userSpaceOnUse" x2="360.75" y1="536.5" y2="646.75" id="linearGradient3" spreadMethod="reflect"><stop stop-opacity="1" stop-color="rgb(232,238,247)" offset="0%"/><stop stop-opacity="1" stop-color="rgb(183,201,227)" offset="100%"/></linearGradient><linearGradient x1="524.5" gradientUnits="userSpaceOnUse" x2="668.5" y1="542" y2="646.75" id="linearGradient4" spreadMethod="reflect"><stop stop-opacity="1" stop-color="rgb(232,238,247)" offset="0%"/><stop stop-opacity="1" stop-color="rgb(183,201,227)" offset="100%"/></linearGradient><linearGradient x1="211.75" gradientUnits="userSpaceOnUse" x2="356.75" y1="305" y2="391.25" id="linearGradient5" spreadMethod="reflect"><stop stop-opacity="1" stop-color="rgb(232,238,247)" offset="0%"/><stop stop-opacity="1" stop-color="rgb(183,201,227)" offset="100%"/></linearGradient><linearGradient x1="531" gradientUnits="userSpaceOnUse" x2="676" y1="305" y2="391.25" id="linearGradient6" spreadMethod="reflect"><stop stop-opacity="1" stop-color="rgb(232,238,247)" offset="0%"/><stop stop-opacity="1" stop-color="rgb(183,201,227)" offset="100%"/></linearGradient><linearGradient x1="211.75" gradientUnits="userSpaceOnUse" x2="356.75" y1="59.8902" y2="146.1402" id="linearGradient7" spreadMethod="reflect"><stop stop-opacity="1" stop-color="rgb(232,238,247)" offset="0%"/><stop stop-opacity="1" stop-color="rgb(183,201,227)" offset="100%"/></linearGradient><clipPath clipPathUnits="userSpaceOnUse" id="clipPath1"><path d="M0 0 L1778 0 L1778 1080 L0 1080 L0 0 Z"/></clipPath><clipPath clipPathUnits="userSpaceOnUse" id="clipPath2"><path d="M-130 -359 L1648 -359 L1648 721 L-130 721 L-130 -359 Z"/></clipPath><clipPath clipPathUnits="userSpaceOnUse" id="clipPath3"><path d="M-583.4001 -63.1057 L542.2149 -63.1057 L542.2149 422.9015 L-583.4001 422.9015 L-583.4001 -63.1057 Z"/></clipPath></defs>
<linearGradient gradientTransform="matrix(1 0 0 1 -760.5996 -1807.4023)" x1="807.2808" x2="783.5425" gradientUnits="userSpaceOnUse" y1="1849.3247" y2="1849.3247" id="svg1.SVGID_1_">
	<stop offset="0" style="stop-color:#4D4D4D"/>
	<stop offset="1" style="stop-color:#999999"/>
</linearGradient>
<path fill="url(#svg1.SVGID_1_)" d="M46.527,40.407c0,0.965-6.758,1.404-12.371,1.404c-3.889,0-10.914-0.349-11.367-1.268  c0,0.446,0,1.502,0,1.661c0,0.726,4.803,1.233,11.357,1.233c6.554,0,12.381-0.643,12.381-1.36  C46.527,41.921,46.527,40.87,46.527,40.407z" display="none"/>
<path fill="#808080" d="M34.658,39.2c6.556,0,11.869,0.584,11.869,1.307c0,0.721-5.313,1.42-11.869,1.42  c-6.701,0-11.869-0.697-11.869-1.42S28.104,39.2,34.658,39.2z" display="none"/>
<linearGradient gradientTransform="matrix(1 0 0 1 -760.5996 -1807.4023)" x1="797.8442" x2="792.8472" gradientUnits="userSpaceOnUse" y1="1843.356" y2="1843.356" id="svg1.SVGID_2_">
	<stop offset="0" style="stop-color:#999999"/>
	<stop offset="0.0417" style="stop-color:#8D8D8D"/>
	<stop offset="0.1617" style="stop-color:#717171"/>
	<stop offset="0.2821" style="stop-color:#5D5D5D"/>
	<stop offset="0.4021" style="stop-color:#515151"/>
	<stop offset="0.5212" style="stop-color:#4D4D4D"/>
	<stop offset="0.6202" style="stop-color:#565656"/>
	<stop offset="0.7817" style="stop-color:#6E6E6E"/>
	<stop offset="0.9844" style="stop-color:#969696"/>
	<stop offset="1" style="stop-color:#999999"/>
</linearGradient>
<path fill="url(#svg1.SVGID_2_)" d="M37.212,40.79c0,0-1.477,0.096-2.498,0.096s-2.499-0.096-2.499-0.096v-9.768h4.997  V40.79z" display="none"/>
<linearGradient y2="42.0806" id="svg1.SVGID_3_" x1="52.1938" gradientUnits="userSpaceOnUse" x2="17.5693" y1="42.0806">
	<stop offset="0" style="stop-color:#999999"/>
	<stop offset="0.0417" style="stop-color:#8D8D8D"/>
	<stop offset="0.1617" style="stop-color:#717171"/>
	<stop offset="0.2821" style="stop-color:#5D5D5D"/>
	<stop offset="0.4021" style="stop-color:#515151"/>
	<stop offset="0.5212" style="stop-color:#4D4D4D"/>
	<stop offset="0.6202" style="stop-color:#565656"/>
	<stop offset="0.7817" style="stop-color:#6E6E6E"/>
	<stop offset="0.9844" style="stop-color:#969696"/>
	<stop offset="1" style="stop-color:#999999"/>
</linearGradient>
<path fill="url(#svg1.SVGID_3_)" d="M51.97,42.018c0,0.516-0.45,0.938-1,0.938H18.345c-0.55,0-1-0.422-1-0.938s0.249-0.813,0.249-0.813  l34.146,0.028C51.74,41.234,51.97,41.502,51.97,42.018z"/>
<linearGradient y2="39.5415" id="svg1.SVGID_4_" x1="52.0024" gradientUnits="userSpaceOnUse" x2="17.7529" y1="39.5415">
	<stop offset="0" style="stop-color:#999999"/>
	<stop offset="0.0417" style="stop-color:#8D8D8D"/>
	<stop offset="0.1617" style="stop-color:#717171"/>
	<stop offset="0.2821" style="stop-color:#5D5D5D"/>
	<stop offset="0.4021" style="stop-color:#515151"/>
	<stop offset="0.5212" style="stop-color:#4D4D4D"/>
	<stop offset="0.6202" style="stop-color:#565656"/>
	<stop offset="0.7817" style="stop-color:#6E6E6E"/>
	<stop offset="0.9844" style="stop-color:#969696"/>
	<stop offset="1" style="stop-color:#999999"/>
</linearGradient>
<path fill="url(#svg1.SVGID_4_)" d="M51.782,41.286h-34.25l2.179-2.714c0.349-0.426,1.083-0.774,1.633-0.774h26.625  c0.55,0,1.285,0.349,1.633,0.774L51.782,41.286z"/>
<linearGradient gradientTransform="matrix(1 0 0 1 -760.5996 -1807.4023)" x1="797.8442" x2="792.8472" gradientUnits="userSpaceOnUse" y1="1842.3892" y2="1842.3892" id="svg1.SVGID_5_">
	<stop offset="0" style="stop-color:#999999"/>
	<stop offset="0.0417" style="stop-color:#8D8D8D"/>
	<stop offset="0.1617" style="stop-color:#717171"/>
	<stop offset="0.2821" style="stop-color:#5D5D5D"/>
	<stop offset="0.4021" style="stop-color:#515151"/>
	<stop offset="0.5212" style="stop-color:#4D4D4D"/>
	<stop offset="0.6202" style="stop-color:#565656"/>
	<stop offset="0.7817" style="stop-color:#6E6E6E"/>
	<stop offset="0.9844" style="stop-color:#969696"/>
	<stop offset="1" style="stop-color:#999999"/>
</linearGradient>
<path fill="url(#svg1.SVGID_5_)" d="M37.212,39.694c0,0-1.478,0.354-2.499,0.354c-1.021,0-2.499-0.354-2.499-0.354v-9.768h4.997V39.694z"/>
<radialGradient gradientTransform="matrix(1.513 0 0 1 -973.8635 -1807.4023)" id="svg1.SVGID_6_" r="24.0778" cx="657.0923" gradientUnits="userSpaceOnUse" cy="1817.3071">
	<stop offset="0" style="stop-color:#F2F2F2"/>
	<stop offset="1" style="stop-color:#666666"/>
</radialGradient>
<path fill="url(#svg1.SVGID_6_)" d="M0.14,2.14c0-1.1,1.184-2,2.631-2h63.474c1.446,0,2.631,0.9,2.631,2v30.073c0,1.101-1.185,2-2.631,2  H2.771c-1.447,0-2.631-0.899-2.631-2V2.14z"/>
<path stroke-linecap="round" fill="none" stroke-linejoin="round" d="  M0.14,2.14c0-1.1,1.184-2,2.631-2h63.474c1.446,0,2.631,0.9,2.631,2v30.073c0,1.101-1.185,2-2.631,2H2.771  c-1.447,0-2.631-0.899-2.631-2V2.14z" stroke="#666666" stroke-width="0.2794" stroke-miterlimit="10"/>
<radialGradient gradientTransform="matrix(1.5073 0 0 1 -921.6763 -1807.4023)" gradientUnits="userSpaceOnUse" r="53.3331" cx="635.0688" id="svg1.SVGID_7_" cy="1809.1597" fx="677.0258" fy="1801.9722">
	<stop offset="0" style="stop-color:#4D4D4D"/>
	<stop offset="1" style="stop-color:#999999"/>
</radialGradient>
<path fill="url(#svg1.SVGID_7_)" d="M2.813,3.161c0-1.1,1.136-2,2.525-2h58.636c1.389,0,2.525,0.9,2.525,2v27.805c0,1.1-1.137,2-2.525,2  H5.339c-1.389,0-2.525-0.9-2.525-2V3.161z"/>
<radialGradient gradientTransform="matrix(1.5102 0 0 1 -924.7913 -1807.4023)" id="svg1.SVGID_8_" r="34.1874" cx="636.0776" gradientUnits="userSpaceOnUse" cy="1809.2437">
	<stop offset="0" style="stop-color:#9CD7FF"/>
	<stop offset="1" style="stop-color:#3C89C9"/>
</radialGradient>
<path fill="url(#svg1.SVGID_8_)" d="M3.439,3.616c0-1.1,1.14-2,2.533-2h57.371c1.394,0,2.532,0.9,2.532,2V30.51c0,1.1-1.139,2-2.532,2  H5.972c-1.393,0-2.533-0.9-2.533-2V3.616z"/>
<path fill="#F2F2F2" d="M3.356,23.653V3.616c0-1.1,1.143-2,2.54-2h57.522  c1.398,0,2.54,0.9,2.54,2v13.539c0,0-17.706,2.838-34.415,4.549C14.834,23.414,3.356,23.653,3.356,23.653z" enable-background="new    " opacity="0.24"/>
</svg>
      </g>
    </g>
    <g font-size="20px" stroke-linecap="butt" transform="matrix(1,0,0,1,130,359)" text-rendering="geometricPrecision" font-family="sans-serif" shape-rendering="geometricPrecision" stroke-miterlimit="1.45">
      <text x="684.3732" xml:space="preserve" y="-237.7671" clip-path="url(#clipPath2)" stroke="none">Internal network access to client</text>
    </g>
    <g text-rendering="geometricPrecision" stroke-miterlimit="1.45" shape-rendering="geometricPrecision" transform="matrix(1,0,0,1,130,359)" stroke-linecap="butt">
      <path fill="none" d="M284.25 542.0154 L284.25 399.2486" clip-path="url(#clipPath2)"/>
      <path d="M284.25 391.2486 L279.25 403.2486 L284.25 400.2486 L289.25 403.2486 Z" clip-path="url(#clipPath2)" stroke="none"/>
      <text x="252.1162" font-size="20px" y="470.7988" clip-path="url(#clipPath2)" font-family="sans-serif" stroke="none" xml:space="preserve">PORT : 5432</text>
      <path fill="none" d="M597.8407 547.2112 L602.0471 399.2344" clip-path="url(#clipPath2)"/>
      <path d="M602.2745 391.2376 L596.9355 403.0907 L602.0187 400.234 L606.9314 403.3749 Z" clip-path="url(#clipPath2)" stroke="none"/>
      <text x="574.3672" font-size="20px" y="473.5488" clip-path="url(#clipPath2)" font-family="sans-serif" stroke="none" xml:space="preserve">PORT:3306</text>
      <path fill="none" d="M342.0439 547.5441 L540.6158 396.0884" clip-path="url(#clipPath2)"/>
      <path d="M546.9767 391.2367 L534.4031 394.5386 L539.8207 396.6948 L540.4676 402.4898 Z" clip-path="url(#clipPath2)" stroke="none"/>
      <text x="435.3846" font-size="20px" y="473.614" clip-path="url(#clipPath2)" font-family="sans-serif" stroke="none" xml:space="preserve">PORT : 5432</text>
      <path fill="none" d="M675.9788 334.4117 L1460.7177 334.4117" clip-path="url(#clipPath2)"/>
      <path d="M1468.7177 334.4117 L1456.7177 329.4117 L1459.7177 334.4117 L1456.7177 339.4117 Z" clip-path="url(#clipPath2)" stroke="none"/>
      <text x="936.4219" font-size="20px" y="366.2134" clip-path="url(#clipPath2)" font-family="sans-serif" stroke="none" xml:space="preserve">HTTPS</text>
      <text x="912.7598" font-size="20px" y="389.4946" clip-path="url(#clipPath2)" font-family="sans-serif" stroke="none" xml:space="preserve">PORT:6443</text>
      <text x="805.5527" font-size="20px" y="412.7759" clip-path="url(#clipPath2)" font-family="sans-serif" stroke="none" xml:space="preserve">HUB HOSTNAME authorized only</text>
      <text x="820.8506" font-size="20px" y="436.0571" clip-path="url(#clipPath2)" font-family="sans-serif" stroke="none" xml:space="preserve">SECURED BY HUB SIGNED CA</text>
      <path fill="none" d="M284.25 305.0094 L284.25 154.1658" clip-path="url(#clipPath2)"/>
      <path d="M284.25 146.1658 L279.25 158.1658 L284.25 155.1658 L289.25 158.1658 Z" clip-path="url(#clipPath2)" stroke="none"/>
      <text x="258.4736" font-size="20px" y="232.4939" clip-path="url(#clipPath2)" font-family="sans-serif" stroke="none" xml:space="preserve">PORT:8080</text>
      <path fill="none" d="M623.7784 305.0068 L821.7642 -115.9732" clip-path="url(#clipPath2)"/>
      <path d="M825.1688 -123.2126 L815.5372 -114.4814 L821.3386 -115.0683 L824.5864 -110.2256 Z" clip-path="url(#clipPath2)" stroke="none"/>
      <text x="739.2091" font-size="20px" y="101.0659" clip-path="url(#clipPath2)" font-family="sans-serif" stroke="none" xml:space="preserve">https://hostname:6443/shrine-webclient</text>
      <text x="747.3048" font-size="20px" y="124.3472" clip-path="url(#clipPath2)" font-family="sans-serif" stroke="none" xml:space="preserve">https://hostname:6443/shrine-steward</text>
      <path fill="none" d="M356.7682 67.7507 L785.9256 -140.9422" clip-path="url(#clipPath2)"/>
      <path d="M793.1201 -144.4407 L780.1418 -143.6894 L785.0263 -140.5048 L784.515 -134.6964 Z" clip-path="url(#clipPath2)" stroke="none"/>
      <text x="418.6582" font-size="20px" y="-87.8839" clip-path="url(#clipPath2)" font-family="sans-serif" stroke="none" xml:space="preserve">http://hostname/webclient</text>
    </g>
  </g>
</svg>
